<svg id="Layer" enable-background="new 0 0 64 64" height="512" viewBox="0 0 64 64" width="512" xmlns="http://www.w3.org/2000/svg"><path d="m48 14h-28v-4c0-1.104-.896-2-2-2-5.514 0-10 4.486-10 10v22c0 4.411 3.589 8 8 8h28v6c0 1.104.896 2 2 2h4c3.309 0 6-2.691 6-6v-28c0-4.411-3.589-8-8-8zm-36 4c0-2.607 1.672-4.832 4-5.657v19.657c-1.456 0-2.823.391-4 1.074zm4 26c-2.206 0-4-1.794-4-4s1.794-4 4-4h2c1.104 0 2-.896 2-2v-16h28c2.206 0 4 1.794 4 4v22.35c-.627-.222-1.298-.35-2-.35zm34 8h-2v-4h2c1.103 0 2 .897 2 2s-.897 2-2 2z"/><path d="m46 24h-20c-1.104 0-2 .896-2 2s.896 2 2 2h20c1.104 0 2-.896 2-2s-.896-2-2-2z"/><path d="m40 32h-14c-1.104 0-2 .896-2 2s.896 2 2 2h14c1.104 0 2-.896 2-2s-.896-2-2-2z"/></svg>